<svg width="586" height="11" viewBox="0 0 586 11" fill="none" xmlns="http://www.w3.org/2000/svg">
<mask id="mask0_1_121" style="mask-type:alpha" maskUnits="userSpaceOnUse" x="-8" y="0" width="594" height="11">
<rect x="-8" y="0.998474" width="594" height="10" fill="#C4C4C4"/>
</mask>
<g mask="url(#mask0_1_121)">
<path d="M81.2208 -1.11649L82.6725 -1.2483L79.8475 -1.43729L81.2017 -1.57562C82.5597 -1.57435 84.3191 -1.36708 85.2765 -1.47721C85.3935 -1.58385 83.9148 -1.61807 83.5375 -1.70303C83.2036 -1.79011 82.9311 -1.87663 82.7232 -1.96154C83.4627 -1.96062 84.2758 -1.94009 85.1141 -1.90113C86.2417 -1.83751 87.3476 -1.80658 88.3099 -1.81176C90.2778 -1.79458 92.179 -1.81172 94.3185 -1.80794L93.6066 -2.06458L96.364 -2.00454C96.6562 -1.98499 97.0045 -2.01643 97.2917 -1.99225C99.6813 -1.7876 100.692 -1.89912 101.84 -1.99158C102.075 -2.01551 102.358 -2.03337 102.682 -2.04471C105.87 -1.99569 108.744 -1.70884 111.615 -1.56158C112.156 -1.52398 112.674 -1.47572 113.133 -1.42022C114.132 -1.31232 115.243 -1.22422 116.364 -1.16399C117.485 -1.10376 118.581 -1.07333 119.552 -1.07545C121.698 -1.07783 124.123 -1.00646 126.592 -0.868253C127.326 -0.822728 128.061 -0.7927 128.749 -0.780071C129.437 -0.767445 130.064 -0.772496 130.59 -0.794916L132.259 -0.648417C132.982 -0.70786 133.9 -0.740478 134.955 -0.744281C136.011 -0.748086 137.183 -0.723 138.4 -0.670551C139.697 -0.61365 141.014 -0.575293 142.36 -0.515135C145.14 -0.400125 147.845 -0.329791 150.392 -0.306311C154.184 -0.236734 157.89 -0.182939 161.716 -0.0961953C164.109 -0.054325 166.442 -0.0312957 168.698 -0.0272283C171.402 -0.010851 174.326 0.0684321 177.33 0.206796C177.187 0.336612 175.87 0.29826 174.986 0.293868C172.134 0.27229 169.215 0.216379 166.281 0.174376C164.96 0.157982 163.674 0.151772 162.433 0.155793C160.357 0.150411 158.169 0.115822 155.906 0.0526136C152.331 -0.0169346 148.87 -0.0503669 145.559 -0.0473409C145.299 -0.0421989 145.061 -0.033087 144.849 -0.0201577C144.805 -0.00895977 144.796 0.00516218 144.824 0.0208498C144.852 0.0365378 144.915 0.0532742 145.007 0.0694463C145.1 0.0856195 145.218 0.100689 145.352 0.113217C145.486 0.125746 145.63 0.135315 145.771 0.141002C147.086 0.228977 148.498 0.323466 149.738 0.336759C149.786 0.337753 149.837 0.34002 149.888 0.343401C149.938 0.346783 149.987 0.351193 150.031 0.356309C152.807 0.542036 155.09 0.510608 157.252 0.540824C160.843 0.622491 164.305 0.660637 167.584 0.654689C168.08 0.655092 168.615 0.665709 169.17 0.686154C172.605 0.769027 175.817 0.778297 178.656 0.713541C179.824 0.697137 180.91 0.660307 182.166 0.659691C182.939 0.657156 183.612 0.633655 184.145 0.590592C184.677 0.54753 185.058 0.485796 185.264 0.409107C185.794 0.449483 186.332 0.485467 186.871 0.516628C187.194 0.534446 187.503 0.539179 187.736 0.529854C187.97 0.520531 188.11 0.497848 188.129 0.466394C188.226 0.378304 187.49 0.334066 186.852 0.296344C187.237 0.277451 187.67 0.266338 188.143 0.26327C190.803 0.243141 193.656 0.266898 196.64 0.334018C198.957 0.414359 200.806 0.348967 203.244 0.462265C203.536 0.481814 203.776 0.45312 204.045 0.446231C204.747 0.409948 205.62 0.401793 206.591 0.422478C207.561 0.443164 208.599 0.492065 209.614 0.564942C210.878 0.36584 213.609 0.593296 215.625 0.613737C216.246 0.714991 215.534 0.69719 215.503 0.725008C215.473 0.752826 215.503 0.725002 215.26 0.70871C213.246 0.852102 210.488 0.883369 207.371 0.798117C206.795 0.79847 206.246 0.805003 205.729 0.817651C204.946 0.835552 204.064 0.833765 203.121 0.812366C202.09 0.79665 201.143 0.804115 200.326 0.834399C199.855 0.833905 199.458 0.849076 199.169 0.878515C198.881 0.907952 198.712 0.950704 198.677 1.0028C198.991 1.04295 199.339 1.0797 199.708 1.11157C201.633 1.23742 203.553 1.28951 205.09 1.2576C207.764 1.20261 210.947 1.25627 213.791 1.2375C215.713 1.22989 217.759 1.25155 219.889 1.30208C219.889 1.30208 219.833 1.35308 219.828 1.35771C220.08 1.37979 220.345 1.39751 220.608 1.40985C220.608 1.40985 220.608 1.40985 220.633 1.38667C220.516 1.36441 220.358 1.34346 220.176 1.32627L219.543 1.2839C219.974 1.27288 220.376 1.24006 220.824 1.26011C221.769 1.29737 222.672 1.3131 223.479 1.30636C224.287 1.29963 224.981 1.27057 225.52 1.22093C226.477 1.1573 227.666 1.12837 229.012 1.136C230.043 1.12905 231.037 1.11412 231.989 1.09129C231.989 1.09129 232.05 1.03566 232.501 1.00609C232.074 0.969617 231.629 0.939837 231.186 0.918113C229.258 0.863839 227.326 0.814201 225.432 0.777095C224.735 0.773086 224.079 0.779304 223.477 0.795624C221.811 0.814725 219.939 0.787617 217.971 0.715882C217.971 0.715882 217.581 0.689817 217.386 0.676784C217.939 0.554489 219.843 0.67692 220.614 0.594098C221.083 0.595607 221.908 0.606022 221.879 0.584218C221.815 0.555122 221.808 0.528093 221.857 0.505069C221.906 0.482044 222.012 0.463594 222.166 0.451043C222.319 0.438493 222.517 0.432148 222.746 0.432471C222.975 0.432793 223.228 0.439776 223.487 0.45291C225.656 0.523964 227.698 0.543722 229.489 0.510977C230.168 0.51161 230.929 0.532669 231.603 0.537937C232.015 0.544283 232.392 0.540754 232.712 0.527544C234.34 0.430258 236.531 0.423154 238.956 0.507298C240.128 0.537548 241.223 0.541594 242.184 0.519227C242.869 0.515223 243.159 0.584391 243.646 0.616974L245.714 0.685661L243.058 0.771727C243.626 0.968964 244.077 1.034 245.005 1.04629C246.358 1.06484 247.676 1.07323 248.951 1.07138C249.893 1.06976 250.672 1.02729 251.949 1.10273C252.174 1.11504 252.391 1.11902 252.564 1.11401C254.059 1.04703 255.859 1.03166 257.841 1.06895C258.868 0.943523 260.616 1.06547 262.234 1.16372C262.756 1.06924 261.81 1.02588 261.246 0.96823C262.599 0.974131 263.962 0.970761 265.358 0.984558C265.778 0.979535 266.259 0.988126 266.761 1.00965C267.264 1.03118 267.775 1.06506 268.255 1.10863C268.488 1.13679 268.77 1.15798 269.042 1.1678C269.314 1.17763 269.554 1.17533 269.713 1.1614C270.438 1.12031 271.599 1.15815 272.198 1.08874C272.411 1.07278 272.715 1.07055 273.056 1.08244C273.398 1.09434 273.754 1.11959 274.061 1.15367C273.725 1.16431 273.425 1.18105 273.17 1.20354C272.253 1.27658 272.59 1.39863 273.754 1.57608C275.543 1.56632 277.37 1.56909 279.027 1.53565C279.951 1.50563 281.083 1.51501 282.296 1.56275C283.509 1.61048 284.755 1.69468 285.893 1.80587C286.305 1.84862 286.775 1.87823 287.209 1.88882C287.643 1.89941 288.01 1.8902 288.236 1.86302C288.376 1.83159 288.42 1.7918 288.363 1.74711L287.194 1.66892C287.194 1.66892 287.24 1.62719 287.25 1.61792L288.93 1.61091C289.82 1.61066 290.747 1.62295 291.588 1.61945C292.822 1.59616 294.231 1.60914 295.729 1.65759C297.109 1.70726 298.467 1.7448 299.788 1.76989C301.067 1.79572 301.993 1.71339 303.21 1.70024C304.131 1.69033 305.143 1.70092 306.209 1.7316C308.049 1.78601 309.739 1.78611 311.123 1.73189C312.737 2.024 313.521 2.07149 315.019 1.99256L315.724 1.97001L315.917 2.03266L316.455 2.01889C317.461 2.00661 318.468 1.99435 319.519 1.98997C320.979 2.01708 322.557 2.09001 324.097 2.20165C324.389 2.2212 324.787 2.28762 325.043 2.33962C325.3 2.39163 325.86 2.54851 326.27 2.65064C325.823 2.72519 325.326 2.79649 324.971 2.88219C324.935 2.89684 324.938 2.9143 324.981 2.93317C325.023 2.95204 325.103 2.97181 325.215 2.99087C325.326 3.00993 325.465 3.02776 325.622 3.04292C325.778 3.05809 325.947 3.07017 326.115 3.07818C326.442 3.09547 326.765 3.10699 327.071 3.11228C328.576 3.12139 330.017 3.11462 331.38 3.09201C331.878 3.06013 332.56 3.0571 333.317 3.08341C334.074 3.10973 334.864 3.16388 335.561 3.23728C337.344 3.19321 339.417 3.20623 341.636 3.27542C343.983 3.23334 346.817 3.31845 349.01 3.22624C348.959 3.2726 349.185 3.35243 349.5 3.39841C349.999 3.46827 350.565 3.53301 351.172 3.58989L355.808 3.70095C355.982 3.75806 356.198 3.81587 356.455 3.87363C356.632 3.91926 356.938 3.9639 357.311 3.99811C357.683 4.03231 358.092 4.05338 358.45 4.05685C359.373 4.07378 360.146 4.03594 361.246 4.12942C359.552 4.2178 357.268 4.20606 354.799 4.09629C352.48 4.01281 350.25 3.97109 348.19 3.97268C347.512 3.97205 346.617 3.97692 346.405 4.02742C345.935 4.17014 344.705 4.14758 343.27 4.12125C342.142 4.09244 341.113 4.09567 340.265 4.13069C339.418 4.16571 338.777 4.23152 338.395 4.3227C338.299 4.41079 338.53 4.48598 339.519 4.53724L343.633 4.74278C344.24 4.71635 344.815 4.68507 345.357 4.64907C346.27 4.60124 347.397 4.58811 348.651 4.61071C349.905 4.6333 351.251 4.691 352.586 4.77932C353.268 4.82494 353.95 4.87055 354.444 4.84888C354.878 4.82398 355.278 4.79417 355.64 4.75967C355.713 4.73655 355.742 4.70993 355.727 4.68085C355.989 4.69437 356.252 4.71196 356.506 4.73299C358.537 4.97835 360.11 4.97411 361.539 4.91046C361.926 4.89154 362.221 4.86147 362.612 4.83792C363.004 4.81437 363.142 4.78379 363.499 4.79269C366.338 4.87316 367.156 4.60439 369.549 4.61518C369.666 4.60468 369.738 4.58899 369.76 4.56954C369.781 4.5501 369.751 4.52753 369.671 4.50391C369.502 4.48259 369.307 4.46425 369.102 4.45059C368.898 4.43692 368.692 4.42837 368.502 4.42571C367.401 4.39122 366.428 4.40179 365.751 4.45563C365.271 4.47763 364.763 4.49516 364.229 4.50812L361.833 4.1189C364.154 4.15458 366.35 4.15434 368.369 4.1182C368.81 4.09791 369.555 4.13287 370.176 4.13952L374.737 4.1759C375.674 4.17892 376.473 4.1179 377.781 4.26013C377.781 4.26013 378.645 4.28307 378.875 4.26365C379.106 4.24423 380.127 4.12344 380.736 4.04475C381.444 4.06719 382.423 4.12772 382.863 4.10743C383.633 4.05758 384.299 3.99367 384.85 3.91685L387.605 4.02651C387.602 4.12393 387.502 4.21557 387.305 4.30006C387.09 4.38153 387.098 4.47933 387.327 4.58546C387.556 4.69159 387.999 4.80303 388.622 4.91069L391.343 5.48086C391.787 5.51904 392.26 5.54474 392.698 5.55447C393.136 5.56421 393.518 5.5575 393.792 5.53526C394.963 5.46923 396.274 5.41761 397.445 5.35159C398.955 5.4526 398.567 5.61575 399.664 5.75885L403.22 5.99671C403.762 6.21713 404.315 6.42828 402.665 6.50207C402.338 6.51497 402.559 6.59943 402.259 6.63414C403.542 6.79956 404.951 6.84907 406.251 6.95095C406.764 7.02423 407.192 7.10179 407.516 7.17989C407.872 7.29749 408.593 7.41763 409.524 7.51434C410.455 7.61106 411.52 7.67661 412.491 7.69682C414.119 7.75874 415.786 7.85175 417.418 7.97166C417.975 8.01336 418.548 8.04374 419.097 8.06076C419.647 8.07777 420.16 8.08103 420.603 8.0703C422.182 8.05142 423.518 7.98649 424.524 7.87974C425.52 7.78915 426.862 7.74549 428.428 7.75272C431.107 7.93193 431.648 8.20197 433.269 8.43981L430.468 8.46648C430.367 8.55921 430.552 8.67612 429.404 8.67398C428.256 8.67184 428.839 8.76056 429.211 8.85016C429.342 8.89523 429.598 8.94159 429.936 8.9814C430.273 9.0212 430.671 9.052 431.063 9.06858L433.446 9.18326C434.292 9.2269 435.11 9.24554 435.811 9.23712C436.512 9.22871 437.069 9.19356 437.42 9.13555C437.823 9.08047 438.38 9.0432 439.056 9.02605C439.918 8.98111 440.627 8.91428 441.156 8.82808L444.521 8.95367C444.664 8.86705 445.127 8.80631 445.83 8.78173C446.533 8.75714 447.435 8.77021 448.381 8.81874L450.649 8.89583C453.171 8.97993 453.725 8.95224 454.463 8.70803L451.439 8.27181C451.878 8.1569 452.303 8.05591 452.727 7.95491C451.974 7.8112 450.969 7.67527 449.814 7.56093C448.736 7.43807 447.627 7.31908 446.493 7.20441C445.262 7.08724 443.962 6.98535 442.434 6.85327C442.167 6.81053 441.78 6.73484 441.284 6.66191C440.789 6.59104 440.272 6.52156 439.735 6.45376C439.837 6.36104 439.929 6.27759 439.733 6.16995C440.674 6.20429 441.646 6.26436 442.562 6.34474C443.478 6.42512 444.309 6.52328 444.979 6.63037C445.092 6.64936 445.23 6.6672 445.384 6.68268C445.539 6.69816 445.706 6.71092 445.874 6.7201C447.527 6.78589 448.317 6.92336 449.126 7.0919C449.67 7.17806 450.372 7.25457 451.134 7.31083C452.595 7.40858 454.026 7.53415 455.423 7.64255C455.851 7.67867 456.295 7.70841 456.738 7.73052C458.199 7.80085 459.669 7.89918 461.073 8.02052C461.532 8.05136 461.971 8.09218 462.356 8.13955C462.741 8.18692 463.059 8.23947 463.284 8.29283C462.936 8.35128 462.748 8.42507 462.732 8.50973C462.671 8.56537 463.697 8.67878 464.182 8.76099C464.667 8.84319 463.716 8.80446 463.393 8.81273C462.069 8.82863 461.823 8.86196 462.616 9.04441C462.881 9.10178 463.057 9.15919 463.133 9.21305C463.209 9.26692 463.183 9.31611 463.057 9.35756C462.869 9.5291 462.296 9.66995 461.903 9.83773C462.513 9.94825 463.534 10.0663 463.645 10.2031C463.699 10.2335 463.812 10.2656 463.976 10.2973C464.14 10.3289 464.351 10.3593 464.595 10.3861C465.236 10.444 465.819 10.5133 466.298 10.5885C466.778 10.6637 467.141 10.7429 467.36 10.8199C467.432 10.8518 467.605 10.8856 467.845 10.9145C468.084 10.9435 468.373 10.9655 468.653 10.9761C468.987 10.9891 469.287 10.9874 469.489 10.9713C469.692 10.9552 469.782 10.9259 469.741 10.8896C469.749 10.8213 469.705 10.7502 469.609 10.6767C469.665 10.6257 469.721 10.5747 469.5 10.4903C470.498 10.5211 471.546 10.5829 472.53 10.6689C473.514 10.7549 474.397 10.8618 475.081 10.9781C475.838 11.0984 476.536 11.2247 477.375 11.3655C477.202 11.5231 477.202 11.5231 478.988 11.8018L488.459 11.9377L490.4 12.1223C492.21 12.2832 492.64 12.2722 493.777 12.189L494.543 12.1108C496.15 12.2183 498.001 12.3421 499.006 12.1407C499.333 12.272 499.546 12.3161 499.472 12.336C498.992 12.5298 498.158 12.6943 497.003 12.8228C496.709 12.8529 496.502 12.8987 496.158 12.9256C495.052 13.0769 494.796 13.3108 495.441 13.5793C495.762 13.6981 496.227 13.8198 496.822 13.9404C495.951 14.1078 494.796 14.2465 493.39 14.3528C492.196 14.435 491.213 14.5451 490.469 14.6799C489.801 14.8159 488.8 14.9181 487.525 14.9806C486.878 15.0072 486.406 15.0597 486.155 15.1329C486.081 15.3309 486.252 15.5429 486.665 15.7642C486.743 15.8315 486.964 15.9042 487.311 15.9767C487.658 16.0491 488.121 16.1192 488.664 16.1816C488.664 16.1816 488.926 16.229 489.052 16.2573C489.157 16.4971 488.764 16.7084 487.901 16.877C487.76 16.9249 487.471 16.9595 487.064 16.977C486.658 16.9946 486.151 16.9944 485.596 16.9766C484.425 16.9481 483.331 16.9445 482.198 16.9285C480.978 16.9058 479.903 16.9237 479.086 16.9803C478.27 17.0369 477.742 17.1301 477.558 17.2501C477.546 17.2841 477.51 17.3166 477.451 17.3475C477.417 17.3634 477.398 17.3804 477.395 17.3985L479.997 17.7914L477.054 17.9479C476.881 18.1056 478.293 18.2001 479.002 18.3171L478.564 18.3824C478.001 18.4193 477.242 18.3487 476.555 18.3077L475.873 18.2621L475.791 18.3362C475.367 18.4372 473.818 18.3237 473.214 18.3978C472.61 18.4718 473.041 18.5554 473.946 18.6358C474.576 18.6956 475.251 18.7433 475.922 18.7753C476.594 18.8073 477.243 18.8227 477.822 18.8205C478.167 18.8125 478.454 18.7944 478.664 18.7673C479.886 18.6518 481.235 18.5525 482.703 18.4701C483.828 18.3962 485.236 18.3647 486.83 18.3779C487.297 18.3724 487.861 18.3899 488.422 18.4274C488.984 18.465 489.506 18.5201 489.898 18.5832L490.723 18.5936C490.723 18.5936 491.175 18.6587 491.111 18.6693C490.797 18.862 491.162 19.0976 492.151 19.3411L491.291 19.3631C490.061 19.3406 490.841 19.4873 490.657 19.5596C489.783 19.5459 488.647 19.4849 488.233 19.5766L487.613 19.57L487.856 19.5863L488.151 19.5562L489.308 19.6933C488.76 19.7164 488.363 19.7445 487.878 19.757C487.611 19.7677 487.398 19.7868 487.253 19.813C487.107 19.8392 487.032 19.8719 487.031 19.9093C487.033 19.9668 486.889 20.0152 486.613 20.0499C486.337 20.0846 485.938 20.1044 485.455 20.1074C484.878 20.1087 484.548 20.1712 484.21 20.1934L485.679 20.5703C485.679 20.5703 484.948 20.5214 485.346 20.5878L485.397 20.5415L486.287 20.6358C486.928 20.7185 487.376 20.7386 487.755 20.6793C488.134 20.6201 488.047 20.6989 488.229 20.6762C488.163 20.7365 487.751 20.7786 487.398 20.8147C486.989 20.843 486.528 20.8639 486.022 20.8769C486.934 21.142 486.977 21.1499 485.646 21.22C484.314 21.2902 484.773 21.3956 483.659 21.4106C482.544 21.4256 483.812 21.6049 484.558 21.6399C485.11 21.6629 485.674 21.6987 486.21 21.7449C486.746 21.791 487.242 21.8465 487.663 21.9073L487.439 22.1113C487.111 22.0944 486.782 22.0725 486.464 22.0462C485.385 21.9341 484.403 21.8286 483.442 21.8938L483.9 22.0488L480.548 21.9589C480.634 22.0751 481.145 22.2074 481.973 22.3279C481.848 22.3942 481.772 22.4639 481.744 22.5366C481.688 22.5876 481.357 22.5555 481.142 22.561C480.374 22.5695 479.744 22.6041 479.307 22.6616C478.87 22.7192 478.64 22.798 478.636 22.891C478.549 22.9699 479.73 23.1334 480.467 23.128C482.31 23.1437 484.302 23.2044 486.336 23.3066C487.577 23.3199 487.752 23.1127 489.792 23.2541C489.833 23.3498 489.571 23.4273 489.048 23.4749C488.524 23.5224 487.766 23.5375 486.889 23.5178C487.388 23.7303 490.15 23.7857 490.272 24.0079C489.584 23.9922 488.849 23.9553 488.138 23.9007C487.428 23.8462 486.767 23.776 486.222 23.6971C486.104 23.6776 485.956 23.6597 485.792 23.6449C485.627 23.6302 485.452 23.6191 485.282 23.6126C485.112 23.6062 484.952 23.6047 484.818 23.6082C484.684 23.6117 484.579 23.6201 484.514 23.6326C484.897 23.713 485.318 23.8058 485.798 23.8927C486.278 23.9795 486.393 24.0171 486.739 24.0353C489.321 24.208 490.548 24.519 492.781 24.7231C493.366 24.7622 493.439 24.8865 492.931 24.8725C492.448 24.8584 492.011 24.8603 491.669 24.8778C491.327 24.8953 491.092 24.9278 490.992 24.9717C490.618 25.0229 490.151 25.0636 489.605 25.0929C491.895 25.4121 494.626 25.6941 497.541 25.9125C498.093 25.9556 498.669 25.9819 499.184 25.9875C500.811 25.9879 502.538 26.0132 504.33 26.063C504.965 26.0766 505.552 26.0753 506.059 26.0593C507.722 26.0212 509.042 26.1045 510.248 26.3395L512.244 26.7119C512.178 26.7722 511.843 26.8393 511.585 26.9316L513.145 27.1304L525.045 26.6724L527.434 27.1159L530.859 27.0912C531.122 27.1041 531.386 27.1217 531.639 27.1434C532.332 27.2743 532.873 27.4001 533.625 27.5251C534.377 27.65 535.719 27.6652 536.656 27.8124C537.592 27.9597 538.53 27.9627 539.689 28.0502C539.798 28.1641 539.685 28.2667 539.358 28.3515C539.251 28.4489 538.662 28.509 538.561 28.6018C538.572 28.6955 538.353 28.775 537.924 28.8332C537.495 28.8914 536.869 28.9264 536.104 28.935C533.96 29.1346 531.374 29.2767 528.426 29.357C528.167 29.3628 527.952 29.3763 527.795 29.3966C527.637 29.4169 527.541 29.4436 527.512 29.475C527.516 29.566 527.319 29.6446 526.936 29.7051C526.553 29.7656 525.994 29.8064 525.298 29.8246C525.113 29.8283 524.973 29.8397 524.896 29.8575C524.633 29.8689 524.44 29.8908 524.338 29.9211C524.237 29.9514 524.228 29.989 524.314 30.0303C524.401 30.0715 524.578 30.1151 524.83 30.1568C525.082 30.1984 525.4 30.2368 525.753 30.2681C526.265 30.3185 526.788 30.3668 527.32 30.4127C527.289 30.4405 526.761 30.445 526.838 30.4701C527.047 30.5501 527.095 30.625 526.979 30.689C526.864 30.753 526.588 30.8042 526.172 30.8386L529.017 31.4867C530.743 31.5765 532.436 31.7287 533.775 31.9146C533.777 31.945 533.7 31.9705 533.552 31.9885C533.404 32.0066 533.19 32.0165 532.931 32.0173C532.237 32.0306 531.581 32.0564 530.833 32.071C530.376 32.082 529.995 32.1061 529.713 32.1419C529.432 32.1778 529.255 32.2246 529.192 32.2798L530.862 32.5209C530.327 32.5797 529.93 32.6079 529.577 32.6439C529.777 32.7197 530.121 32.7981 530.583 32.873C531.045 32.9479 531.612 33.0173 532.24 33.0759C532.408 33.088 532.58 33.0968 532.745 33.1019C532.91 33.1069 533.065 33.1081 533.201 33.1053C534.494 33.0227 536.007 33.1686 537.476 33.3067C538.945 33.4448 539.743 33.5281 540.828 33.6355L542.903 33.6499C543.429 33.7007 543.897 33.7605 544.272 33.8245C544.647 33.8884 544.917 33.9548 545.061 34.0182C544.949 34.1202 543.965 34.0643 543.378 34.0748C541.986 34.1383 540.156 34.1247 538.192 34.0364C537.705 34.0038 537.205 34.0301 536.731 34.0333C535.709 34.046 534.726 34.0666 533.788 34.0951C533.17 34.1217 532.593 34.1546 532.059 34.1935C531.917 34.3233 534.16 34.4236 532.887 34.4877C533.325 34.5171 533.489 34.5579 533.715 34.5431C535.159 34.6274 536.581 34.6691 537.818 34.6633C540.19 34.6454 542.885 34.7046 545.68 34.8359C548.697 34.972 551.591 35.0292 554.124 35.0027C555.088 35.0011 556.166 35.029 557.276 35.0841C558.586 35.1606 559.887 35.2086 561.095 35.2251C561.495 35.2257 561.94 35.2387 562.395 35.2631C562.85 35.2875 563.301 35.3225 563.712 35.3654C563.676 35.3978 563.285 35.4214 563.372 35.4372C564.622 35.68 565.128 35.9329 567.052 36.181C568.367 36.269 569.877 36.37 570.737 36.2534C571.597 36.1367 571.289 36.0365 569.577 35.7378C569.949 35.7335 570.396 35.7475 570.841 35.7773C571.286 35.807 571.701 35.8508 572.013 35.9008L573.493 36.1242L574.827 36.3378C574.71 36.4445 574.618 36.5279 574.522 36.616C574.369 36.7096 574.537 36.8235 575.001 36.9417C575.281 37.0063 575.525 37.0708 575.73 37.1348C576.564 37.3907 576.806 37.6326 576.428 37.8334C575.703 38.122 574.694 38.3876 573.413 38.6271C572.06 38.86 571.319 39.1538 570.204 39.4077C569.635 39.5233 568.944 39.6269 568.139 39.7174C566.611 39.9188 564.936 40.1104 563.403 40.3164C561.87 40.5224 560.139 40.6703 558.437 40.8401C555.902 41.0416 553.162 41.2156 550.232 41.3612C548.419 41.4887 546.557 41.613 544.88 41.7596C542.899 41.9249 540.572 42.0435 537.957 42.1127C535.647 42.1954 533.583 42.3178 531.805 42.4775C531.619 42.4948 531.472 42.5168 531.368 42.5428C531.048 42.7056 530.15 42.8204 528.813 42.8696C528.895 42.9172 528.998 42.9657 529.124 43.0148C529.31 43.0733 529.349 43.128 529.235 43.1719C529.122 43.2158 528.862 43.2468 528.489 43.2609C527.419 43.3012 526.53 43.3697 525.861 43.4634C525.616 43.4869 525.463 43.5211 525.417 43.5631C525.371 43.605 525.433 43.6536 525.597 43.7045C525.742 43.7568 525.753 43.805 525.627 43.8428C525.502 43.8805 525.247 43.9061 524.894 43.9162C523.988 43.9658 523.019 44.0057 521.992 44.0356C519.806 44.1016 517.264 44.1008 514.518 44.0333C514.226 44.0137 513.931 44.0438 513.59 44.021C511.649 43.9453 509.845 43.9336 508.399 43.9873C506.703 44.0082 504.93 44.004 503.142 44.0138C500.558 44.0072 498.174 44.047 496.058 44.1321C493.638 44.0499 492.279 44.1929 490.237 44.1956C488.352 44.2103 486.565 44.2455 484.893 44.3009C482.198 44.3745 479.514 44.4387 476.857 44.5248C474.365 44.5658 472.071 44.6442 470.013 44.7587C469.224 44.8104 467.796 44.7299 467.259 44.8382C466.722 44.9466 465.638 44.9338 464.762 44.9698L461.998 45.0586C461.523 45.0797 461 45.0931 460.438 45.0986C457.868 45.1058 456.089 45.2505 453.704 45.2801L453.46 45.2638C449.225 45.4789 444.378 45.597 439.063 45.6145C435.958 45.6805 432.563 45.6774 429.269 45.7257C428.483 45.8224 426.627 45.7033 425.641 45.7916C424.655 45.8799 423.046 45.822 421.775 45.8366C420.504 45.8511 419.262 45.8874 417.904 45.8861C416.725 45.8866 415.729 45.926 415.007 46.0009C413.36 46.1247 411.351 46.1975 409.072 46.216C406.057 46.2482 403.206 46.3212 400.138 46.3051C400.182 46.3954 399.994 46.4721 399.593 46.5275C399.193 46.5829 398.594 46.615 397.858 46.6204C394.579 46.6548 391.605 46.7445 388.282 46.7711L387.393 46.7713L377.454 46.8231C374.777 46.8331 372.197 46.8496 369.465 46.861C368.443 46.7926 368.418 46.9104 367.711 46.8879C367.513 46.8299 367.279 46.8043 366.931 46.8358L366.855 46.9053L355.513 46.9976C351.072 47.065 346.401 47.0853 341.539 47.0581C340.385 47.0649 339.309 47.088 338.326 47.1269C337.416 47.1411 336.466 47.1474 335.483 47.1457C334.153 47.1281 332.854 47.1193 331.59 47.1192C328.267 47.1457 324.78 47.1314 321.142 47.112C317.503 47.0925 314.746 47.1271 311.508 47.1244C309.315 47.122 307.131 47.1103 304.861 47.0829C303.777 47.0701 302.442 47.0007 301.319 46.9753C300.197 46.95 299.83 46.9504 299.682 46.9902C299.194 47.1019 297.966 47.0297 296.984 47.0188C295.07 47.0002 294.798 46.9621 294.278 46.6735L296.627 46.5818C297.203 46.5522 297.927 46.547 298.729 46.5667C299.532 46.5864 300.386 46.6304 301.209 46.6943C301.533 46.7217 301.872 46.7433 302.206 46.758C302.54 46.7726 302.862 46.78 303.155 46.7796C305.525 46.764 307.861 46.7312 310.139 46.7044L310.472 46.6868L310.493 46.4294C310.191 46.4042 309.879 46.3833 309.567 46.3675L298.144 46.2005C295.522 46.1595 292.8 46.067 290.227 46.0293C287.655 45.9916 286.268 45.9685 284.272 45.9295C283.43 45.9073 282.571 45.8781 281.701 45.8422C281.752 45.8174 281.781 45.791 281.788 45.7633C281.834 45.7216 281.895 45.666 281.525 45.6214C281.122 45.5584 280.584 45.5046 280.018 45.4707C279.486 45.4484 278.97 45.4357 278.49 45.4332C276.173 45.4117 273.527 45.2757 271.116 45.0544L270.274 45.2021C266.653 45.1191 262.978 45.0375 259.196 44.9587C258.438 44.9372 257.643 44.8959 256.871 44.838C256.043 44.7826 255.281 44.6669 254.409 44.6036C253.548 44.5581 252.692 44.5226 251.859 44.4977C252.085 44.4597 252.382 44.4293 252.742 44.4075C253.096 44.3999 253.354 44.3761 253.479 44.3397C253.604 44.3033 253.588 44.2561 253.435 44.205C253.165 44.1173 253.047 44.0347 253.633 44.0242C254.175 44.0042 254.563 43.9609 254.751 43.8994C254.939 43.8379 254.919 43.7608 254.694 43.6771C254.595 43.6282 254.525 43.5803 254.485 43.5338L254.241 43.5175C253.438 43.3443 251.834 43.2818 250.682 43.14C250.139 43.0989 249.576 43.0753 249.083 43.0729C247.809 43.0424 246.569 43.0291 245.252 42.9907C244.622 42.9731 243.964 42.9409 243.316 42.8961C242.391 42.8342 242.293 42.8277 241.756 42.6026C242.591 42.6066 243.252 42.573 243.629 42.5075C244.006 42.442 244.074 42.3487 243.824 42.2433C243.135 42.0131 242.408 41.7704 239.294 41.6068C240.309 41.5987 241.287 41.5827 242.222 41.5588C242.494 41.5537 242.698 41.5368 242.806 41.5104C242.914 41.484 242.921 41.4493 242.827 41.4111C242.732 41.3728 242.54 41.3328 242.277 41.2963C242.014 41.2599 241.691 41.2287 241.353 41.2071C239.709 41.0769 237.994 40.9897 236.401 40.9554C235.058 40.9403 233.846 40.9488 232.278 40.9484L230.427 40.8246C230.458 40.7968 230.186 40.7587 230.255 40.7434C230.725 40.6007 231.244 40.4612 231.778 40.3078C230.925 40.225 230.186 40.125 229.645 40.0193C229.105 39.9136 228.785 39.8065 228.722 39.7102C228.676 39.6812 228.688 39.6547 228.757 39.6327C228.827 39.6106 228.952 39.5936 229.123 39.5828C229.61 39.5641 229.987 39.5286 230.223 39.4788C230.458 39.429 230.548 39.3663 230.484 39.2956L229.045 39.0351C224.711 38.8492 220.455 38.7164 216.356 38.6391L212.656 38.5807C212.209 38.511 212.347 38.4804 212.767 38.4787C213.188 38.4769 214.369 38.4962 215.194 38.5067C215.907 38.5203 216.54 38.5113 217.031 38.4806C217.523 38.4498 217.857 38.3984 218.001 38.3311L216.758 38.034C216.819 37.9784 216.906 37.8996 217.58 37.9048C218.04 37.8984 218.38 37.8704 218.543 37.8253C218.706 37.7803 218.684 37.7208 218.48 37.6565C218.449 37.61 218.495 37.5676 218.617 37.5313C219.614 37.5283 220.605 37.5299 221.51 37.5158C221.931 37.5111 222.287 37.4939 222.552 37.4653C222.818 37.4367 222.988 37.3974 223.051 37.3501C223.083 37.304 223.004 37.2514 222.819 37.1967C222.634 37.1419 222.348 37.0865 221.985 37.035C220.568 36.9712 219.271 36.9704 218.38 37.0327C218.062 37.0815 217.552 37.1082 216.916 37.1092C216.28 37.1102 215.549 37.0855 214.818 37.0383C213.982 36.9839 213.147 36.96 212.465 36.9709C211.782 36.9818 211.296 37.0267 211.094 37.0977C210.235 37.0701 209.474 37.049 208.723 37.0187C207.837 36.9805 207 36.9692 206.301 36.9861C205.184 36.9981 203.98 36.9911 202.717 36.9653C199.075 36.9008 195.429 36.841 191.903 36.8142C190.97 36.8065 190.163 36.8272 189.241 36.8103C188.318 36.7934 187.588 36.8391 186.435 36.747C186.215 36.7327 185.994 36.7235 185.789 36.7201C185.584 36.7168 185.4 36.7194 185.253 36.7277C183.227 36.8005 180.852 36.8108 178.266 36.7579C174.725 36.745 171.053 36.7084 167.507 36.7001C166.467 36.7072 165.484 36.7264 164.569 36.7573C163.872 36.776 163.142 36.7887 162.383 36.7953C161.802 36.8012 161.246 36.7839 161.344 36.885C161.442 36.9861 160.57 36.9228 160.068 36.9041C158.342 36.8551 156.578 36.7887 154.796 36.7057C153.04 36.6156 151.319 36.5631 149.737 36.5515C148.594 36.5447 147.416 36.5704 145.946 36.4323C146.002 36.3813 146.058 36.3303 146.378 36.277C145.18 36.1305 143.813 36.0044 142.39 35.9092C140.967 35.814 139.529 35.7525 138.195 35.7296L136.356 35.4523C135.903 35.4197 135.441 35.396 134.997 35.3826C134.553 35.3691 134.138 35.3663 133.775 35.3742C133.495 35.3782 133.154 35.3679 132.814 35.3452C132.474 35.3224 132.158 35.2887 131.924 35.2504C131.575 35.2015 131.148 35.1594 130.698 35.1293C130.247 35.0991 129.793 35.0823 129.391 35.0809C128.128 35.0508 126.779 34.9811 125.482 34.8792C125.146 34.8194 124.935 34.7576 124.876 34.7015C124.817 34.6453 124.912 34.5973 125.149 34.5633C125.532 34.5032 125.747 34.4266 125.781 34.3382C125.815 34.2498 125.668 34.1514 125.348 34.049C125.184 33.9861 125.129 33.9266 125.187 33.874C125.244 33.8214 125.413 33.7769 125.683 33.743C126.692 33.5865 126.422 33.4988 124.772 33.2391C124.504 33.1959 124.181 33.1554 123.824 33.1203C123.466 33.0853 123.082 33.0564 122.695 33.0355C121.788 32.9932 120.893 32.9617 120.027 32.9416C119.54 32.909 119.041 32.9353 118.479 32.9227C115.673 32.8594 115.263 32.7573 114.354 32.5372L113.691 32.3784C112.463 32.2498 111.12 32.143 109.758 32.0657C108.396 31.9884 107.05 31.9425 105.817 31.9313C105.327 31.9304 104.763 31.9085 104.212 31.8687C102.421 31.7473 100.606 31.6632 98.8887 31.6221C97.8185 31.599 96.6651 31.5391 95.5667 31.4498C94.4683 31.3604 93.4718 31.2453 92.6968 31.1183C92.0007 31.0039 91.0899 30.9012 90.0913 30.8246C88.9223 30.7464 88.814 30.6545 89.4668 30.5837C90.1196 30.5129 91.2129 30.4219 92.1834 30.3474C92.5211 30.3221 92.7303 30.281 92.7878 30.2286C92.8453 30.1762 92.7488 30.1146 92.509 30.0507C92.3551 29.9413 92.3283 29.8375 92.4296 29.7418C92.4837 29.702 92.4463 29.6564 92.32 29.6081C92.1938 29.5597 91.9815 29.5098 91.6975 29.4615C91.4134 29.4133 91.0644 29.3679 90.6738 29.3285C90.2831 29.289 89.8599 29.2564 89.4329 29.2328C87.6306 29.1122 85.8771 28.9949 84.0393 28.9068C83.2691 28.8653 82.4998 28.8138 81.75 28.7537C80.2154 28.6049 78.5735 28.4816 76.9199 28.3908C76.1351 28.3502 75.3678 28.2792 74.7841 28.1931C72.943 27.9614 71.2465 27.7177 69.7254 27.4666C69.3588 27.3887 68.8791 27.3127 68.3164 27.2433C67.7537 27.174 67.1201 27.1128 66.4554 27.0637C65.9196 27.0278 65.4835 26.9489 65.0705 26.8964C64.7705 26.7748 64.7384 26.6623 64.9774 26.5695C65.2164 26.4767 65.7187 26.4065 66.437 26.3657C67.1182 26.3167 67.7557 26.2598 68.3445 26.1997C69.0543 26.1511 69.8981 26.1219 70.8446 26.1131C71.9656 26.087 72.7945 26.0124 73.2232 25.899C70.1546 25.6937 67.2364 25.399 64.5467 25.4679L62.503 25.2814C62.5844 25.2072 62.6556 25.1423 62.7217 25.082C63.2078 24.9723 63.3596 24.834 63.1643 24.6787C63.0033 24.6036 63.0178 24.5352 63.2064 24.4805C63.3949 24.4259 63.7508 24.3868 64.238 24.3673C67.124 24.1672 70.4615 24.0322 73.1679 23.8051C74.0165 23.7625 75.0099 23.7432 76.1062 23.7479C77.1669 23.7342 77.1225 23.6317 75.9019 23.5053C75.2168 23.4392 74.5185 23.3759 73.8096 23.3156C70.6836 23.3055 69.4102 23.6085 65.8429 23.5241L64.1895 23.1249C63.7424 23.1187 63.3084 23.1163 62.8904 23.1176L56.909 23.2798C56.4108 23.288 56.0229 23.3157 55.7896 23.3599C55.5563 23.4041 55.4867 23.463 55.5888 23.5299C55.6293 23.6118 55.547 23.6869 55.3447 23.7525C55.2142 23.7984 55.2977 23.8595 55.5767 23.9223C56.2056 24.0639 55.3987 24.0846 54.8891 24.1201C54.7588 24.1236 54.6086 24.1232 54.4472 24.119C54.2858 24.1148 54.1163 24.1069 53.9487 24.0957C53.781 24.0845 53.6185 24.0702 53.4706 24.0537C53.3227 24.0372 53.1922 24.0188 53.0869 23.9996C52.189 23.8649 51.4038 23.7228 50.5212 23.5741C51.1478 23.4319 50.4106 23.1985 51.3883 23.0698C51.4976 23.0441 51.5414 23.0128 51.5169 22.9777C51.4924 22.9427 51.4001 22.9048 51.2457 22.8662C50.8475 22.7665 50.6579 22.6694 50.6959 22.5846C50.734 22.4997 50.9982 22.4302 51.4622 22.383L51.5181 22.332C50.2946 22.1605 50.6188 22.0081 50.1382 21.8266L48.9612 21.7081C46.0329 21.4226 46.0277 21.4272 43.5066 21.4377C42.9984 21.3291 43.6441 21.3126 44.1282 21.3001L48.1832 21.1783C50.8345 21.0968 53.5628 21.0405 56.5244 21.0097C59.4861 20.9789 62.7879 20.8763 65.8492 20.8024C66.004 20.7966 66.1224 20.7853 66.1945 20.7694C66.2665 20.7534 66.2902 20.7333 66.2635 20.7106C66.1418 20.6862 65.9826 20.6626 65.7975 20.6416C65.6124 20.6206 65.4062 20.6027 65.1941 20.5893C64.2199 20.5242 63.2204 20.4822 62.1822 20.4277L60.2469 20.333L59.6516 20.2086C59.2641 20.1329 58.9993 20.0406 58.4839 19.9862C58.0591 19.9456 57.598 19.9148 57.1486 19.897C56.6991 19.8792 56.2779 19.875 55.9286 19.8849C54.9603 19.9097 54.0843 19.9457 53.1596 19.9784C52.2349 20.0111 51.7253 20.0466 50.9234 20.0627C49.2943 20.07 47.7199 20.0892 46.2069 20.1204C44.9326 20.1941 43.7539 20.2815 42.6783 20.382C42.0074 20.4217 41.3799 20.4693 40.2342 20.4176C39.6906 20.3706 39.2218 20.309 38.9108 20.2435C38.5998 20.1781 38.4667 20.1131 38.5351 20.0601C38.5966 20.0185 38.7706 19.9856 39.0408 19.9645C39.311 19.9434 39.6683 19.9347 40.0791 19.9394C41.2292 19.9318 42.2927 19.906 43.2481 19.8627C44.578 19.7843 46.1969 19.7505 48.0104 19.7633C48.6254 19.7746 49.0376 19.7325 49.5756 19.7187C50.1135 19.7049 50.5693 19.6707 51.169 19.6959C53.0323 19.7608 53.9257 19.6613 55.0423 19.5967C55.4203 19.568 55.6545 19.5217 55.7191 19.4628C55.7837 19.4039 55.6763 19.3347 55.4086 19.2629C54.8932 19.1198 54.2628 18.9759 53.5271 18.8334C53.1485 18.7634 52.6634 18.6969 52.1099 18.6392C51.5565 18.5814 50.9496 18.534 50.337 18.5006C49.9703 18.413 49.7747 18.3268 49.7679 18.2499C49.761 18.1729 49.9431 18.1077 50.2977 18.06C51.2013 17.9513 52.0023 17.8406 54.0269 17.9014C54.9788 17.9246 55.8747 17.9291 56.6788 17.9146C58.4626 17.8947 60.5201 17.9382 62.6576 18.0408C63.2106 18.0671 63.7541 18.0851 64.2722 18.0941C67.9674 18.1572 71.4881 18.1886 75.019 18.2108C76.8895 18.2215 78.7753 18.2183 80.728 18.2494C85.3072 18.3168 89.4756 18.2821 93.8956 18.3041C96.2105 18.3154 98.2825 18.27 100.003 18.1702C100.338 18.1368 100.626 18.0977 100.863 18.0536C99.7227 17.9376 98.4704 17.8459 97.2259 17.787C95.9814 17.7281 94.7863 17.7042 93.7551 17.7174C93.1883 17.7499 92.4556 17.7558 91.6388 17.7346C90.822 17.7133 89.9533 17.6657 89.1294 17.5971L91.5248 17.5583C93.1132 17.5401 94.7401 17.5345 96.2849 17.5084C98.7392 17.4636 101.014 17.3918 103.555 17.3628C105.607 17.336 107.443 17.2678 109.006 17.1601C110.135 17.0815 111.424 17.0258 112.848 16.9941C113.86 16.9772 113.86 16.9772 114.507 16.8164C113.994 16.7124 113.33 16.6978 112.705 16.6958C108.957 16.6304 105.39 16.6189 102.076 16.6617C100.405 16.6654 98.9218 16.7095 97.6986 16.7918C97.3991 16.8265 96.6329 16.8101 96.0178 16.7988C94.0899 16.7817 92.2471 16.7866 90.5118 16.8137C88.1126 16.8588 85.4405 16.8481 82.5994 16.782C82.0606 16.7012 82.6807 16.7079 82.7113 16.68C84.9118 16.6282 87.0688 16.5684 89.3129 16.5245C89.9264 16.5088 90.5821 16.501 91.2728 16.5013C93.8513 16.5286 96 16.453 97.4178 16.2853C97.489 16.2204 98.4218 16.2281 98.8339 16.186C99.0367 16.1495 99.1717 16.1066 99.2351 16.0585C98.6346 15.9387 97.9556 15.9381 97.4329 15.938C95.9162 15.9513 94.4571 15.9767 93.0625 16.0139C91.7662 16.0493 90.3312 16.0587 88.7965 16.042C87.6639 16.026 86.6956 16.0508 85.5528 16.044C84.9329 16.0297 84.2912 16.0069 83.6408 15.9758C84.365 15.8923 85.3494 15.841 86.5248 15.8254C87.416 15.7755 88.5304 15.7605 88.6729 15.6307C88.2519 15.5378 87.783 15.5363 87.4064 15.5459C86.6226 15.5456 85.8655 15.5514 85.139 15.5635C83.5987 15.5898 81.9309 15.5902 80.1709 15.5645C79.244 15.5549 78.3646 15.5578 77.5472 15.5732C75.6949 15.5936 73.9196 15.639 72.2236 15.66C68.7494 15.6814 65.5807 15.758 62.2425 15.7985C61.4995 15.8085 60.8335 15.8436 59.8543 15.783C58.875 15.7225 58.8314 15.7146 58.7158 15.677C58.4418 15.6143 58.3588 15.5535 58.4839 15.5072C58.6781 15.464 59.0566 15.4399 59.5517 15.4393C62.5359 15.3706 65.3663 15.274 68.0253 15.1502C69.1955 15.1254 70.2208 15.0748 71.0654 15.0002C71.7353 14.9488 72.5299 14.9148 73.4244 14.8992C74.7253 14.8621 76.0814 14.8349 77.4874 14.8177C78.1416 14.8085 78.6978 14.7809 79.1234 14.7368C79.5491 14.6926 79.8354 14.6326 79.9655 14.5605L78.2419 14.3207C77.9711 14.3096 77.7025 14.2999 77.4371 14.2918L63.131 14.4645L61.7142 14.4692C60.1614 14.4549 59.7819 14.4196 58.309 14.1419C61.6705 14.0765 64.313 13.8861 65.9733 13.5896C65.5743 13.5577 65.1652 13.5303 64.7556 13.5081C62.0692 13.438 59.5297 13.4194 57.235 13.4529C55.8719 13.4563 54.4703 13.4472 53.0637 13.4426C53.4751 13.3059 55.0511 13.3467 56.0783 13.3158C58.5326 13.2676 60.703 13.168 62.52 13.0202C63.1464 12.9625 63.9301 12.9257 64.8352 12.9113C65.7411 12.9064 66.4977 12.8715 67.0393 12.8097C67.581 12.7479 67.8912 12.6611 67.9429 12.5568C68.0282 12.4624 68.2121 12.3747 68.4917 12.2949C67.997 12.1818 67.2113 12.0735 66.2823 11.9902C65.3532 11.907 64.3446 11.8546 63.4457 11.8429C61.5267 11.7963 59.5363 11.7201 57.5252 11.6161C56.5234 11.5636 55.541 11.5335 54.642 11.5277C53.8491 11.5232 52.9479 11.4854 52.0758 11.4198C51.2037 11.3543 50.4086 11.2647 49.8118 11.1648C49.0063 11.0412 48.2545 10.9163 47.5027 10.7913C46.751 10.6664 45.8787 10.5085 45.0012 10.3553C44.2275 10.3313 43.4741 10.3159 42.7512 10.3093C42.1888 10.3149 41.5325 10.2982 40.8598 10.2611C40.1872 10.224 39.5261 10.1682 38.9548 10.1001C39.2899 10.0329 39.6687 9.97366 40.0678 9.89585C39.52 9.7931 39.1228 9.68831 38.9004 9.58787C38.6781 9.48744 38.6351 9.39345 38.7743 9.31166C38.8557 9.23748 38.2602 9.11304 38.0544 9.01467C37.7896 8.92987 37.7398 8.85073 37.9117 8.78763C38.0836 8.72453 38.4691 8.68042 39.0176 8.66107C39.6981 8.62536 40.2518 8.57158 40.6562 8.50195C40.7899 8.48387 40.858 8.45911 40.8542 8.42993C40.8504 8.40076 40.7748 8.36811 40.6344 8.33495C40.4939 8.30179 40.2931 8.26919 40.0503 8.24013C39.8074 8.21108 39.5303 8.18649 39.2443 8.16862C38.3681 8.11795 37.498 8.08511 36.6838 8.07198C35.2813 8.04783 33.9385 8.03266 32.6557 8.02646C31.2369 8.01715 29.6585 7.95963 28.0808 7.85977C26.6682 7.76527 25.4018 7.68055 24.7111 7.49998C24.0204 7.31941 22.9161 7.32516 22.067 7.19371C22.544 7.07521 23.3918 6.99289 24.5249 6.95502C25.2663 6.94151 25.8852 6.90604 26.3419 6.85089C26.7986 6.79574 27.0829 6.72212 27.1768 6.63476L24.5987 6.26822C22.5399 6.09566 21.4008 6.22847 19.1762 6.15928L21.4684 6.02397C21.5144 6.0106 21.5316 5.99489 21.5192 5.97761C21.2967 5.70394 20.9426 5.64542 18.5995 5.49365L17.2845 5.40568L15.203 5.30128C14.8697 5.24519 14.6392 5.1867 14.5344 5.13166C14.4296 5.07662 14.4543 5.02695 14.6061 4.98763C14.9111 4.9215 15.0038 4.837 14.8757 4.7419C14.6739 4.67891 14.6572 4.62084 14.8286 4.57777C15.0001 4.53469 15.3488 4.50933 15.8142 4.50609C16.1857 4.50108 16.2133 4.42828 16.4154 4.38705C16.6161 4.33023 16.9598 4.28663 17.423 4.25922C17.8861 4.23181 18.4577 4.22121 19.0992 4.22818C20.9903 4.23387 22.7669 4.21254 24.3973 4.16457L24.1051 4.14502C25.8045 4.18713 27.3933 4.19224 28.794 4.16009C30.1978 4.11963 31.9993 4.14559 33.4903 4.12092C34.7041 4.12658 35.6283 4.07058 36.0666 3.9648C36.4911 3.86381 38.0338 3.88738 39.2151 3.90669C39.9149 3.91917 40.5912 3.92447 41.2369 3.9225C42.1035 3.89964 43.1871 3.92119 44.3069 3.98355C44.6429 4.00272 44.9739 4.01286 45.268 4.013C48.1148 4.03922 50.9565 4.07006 53.7648 4.08374C54.413 4.07586 55.1731 4.09391 55.9559 4.13576C56.2849 4.15393 56.6051 4.16146 56.8734 4.15733C61.3109 4.11576 66.3182 4.22181 70.6684 4.16446C71.1956 4.15091 71.7794 4.1481 72.403 4.15608C73.8044 4.18977 75.0214 4.16809 75.8692 4.09433C76.3266 4.0551 76.913 4.03348 77.591 4.03085C78.269 4.02823 79.0238 4.04465 79.8072 4.07908C81.1107 4.12466 82.3155 4.1296 83.2944 4.09339C85.2029 4.05992 87.2101 4.04617 89.2999 4.05222C89.9403 4.05807 90.5032 4.04507 90.945 4.01421C91.3869 3.98336 91.6958 3.93549 91.8478 3.8743C91.3345 3.77029 90.7734 3.75763 90.2405 3.76677C88.1752 3.74307 86.1149 3.71474 84.0881 3.70357C82.274 3.67166 80.5334 3.66191 78.8917 3.67445C78.0766 3.6886 77.0595 3.65634 76.0623 3.58471C74.8402 3.49399 73.5815 3.44892 72.5408 3.45862C71.7691 3.46102 70.9546 3.45321 70.109 3.43529C69.5678 3.41368 69.0131 3.37657 68.5017 3.32777C68.2988 3.30657 68.0779 3.28875 67.8533 3.27545C67.6286 3.26214 67.4052 3.25365 67.1971 3.2505C66.989 3.24735 66.8007 3.24961 66.6446 3.25715C66.4885 3.26469 66.3679 3.27735 66.2903 3.2943C65.5074 3.43601 63.7568 3.36369 62.2578 3.34801C60.0113 3.10816 58.3394 3.25013 56.2399 3.11465C56.0739 3.10567 55.9102 3.10023 55.7591 3.09868C55.608 3.09712 55.4726 3.09949 55.3609 3.10562C51.2979 3.18716 46.5624 3.1192 42.2966 3.14736C41.8261 3.15148 41.28 3.13737 40.7205 3.10663C37.0635 2.90317 33.5474 2.84541 30.8597 2.94464C30.5327 2.95358 30.1607 2.95396 29.7606 2.94577C27.923 2.86491 26.1657 2.83267 24.6354 2.85174C22.2371 2.84558 19.9312 2.85058 17.4944 2.83189C15.8146 2.80529 14.341 2.83371 13.2212 2.91429C13.1856 2.94675 12.4397 2.91178 11.8683 2.90839C11.5396 2.82669 11.2547 2.75289 10.9159 2.68046C10.6131 2.59085 10.1594 2.50017 9.58578 2.41458C9.01218 2.32898 8.33211 2.25047 7.59137 2.18434C6.32496 2.09963 6.19831 1.97669 7.08447 1.93146C9.36856 1.78183 12.2407 1.72058 15.4897 1.75222C18.2057 1.75475 20.9704 1.76055 23.7249 1.77561C25.3315 1.78853 27.0252 1.81722 28.5882 1.82225C29.1157 1.83329 29.6574 1.84956 30.208 1.87089C30.8835 1.90181 31.5394 1.91865 32.1403 1.92052C34.0699 1.89448 36.2232 1.91717 38.4978 1.98749C39.3309 2.00283 40.1308 2.008 40.8858 2.00292C42.6719 1.98383 44.6081 1.99788 46.6434 2.0447C47.9084 2.07109 49.1349 2.0849 50.3103 2.08596C50.7254 2.08884 51.0635 2.06667 51.4633 2.08346C54.9827 2.25917 57.4747 2.13226 60.6421 2.19982C62.1816 2.21866 63.6523 2.21871 65.0337 2.19998C67.7296 2.20089 70.5007 2.22015 73.3358 2.2577C77.0848 2.31938 80.5589 2.29798 84.1385 2.32344C84.8453 2.32879 85.5276 2.32788 86.1807 2.32071C89.3574 2.27331 92.8078 2.28336 96.4477 2.35062C97.2742 2.36033 98.0165 2.34845 98.6282 2.31573C99.2399 2.283 99.7078 2.23013 100.002 2.16043C100.127 2.11259 100.046 2.05045 99.7757 1.986C99.3264 1.9037 98.8191 1.82305 98.262 1.7454L78.0004 1.48484C77.1494 1.47123 76.3195 1.46391 75.515 1.46289C73.1486 1.46063 70.7094 1.44036 68.2096 1.40218C65.7393 1.36633 63.3795 1.37269 60.9863 1.3619C60.2814 1.35828 59.5578 1.34975 58.8186 1.33632C53.8217 1.23007 48.9492 1.16517 44.2354 1.14209C42.2522 1.13882 40.1098 1.09006 38.0881 1.07425C36.0663 1.05844 33.3016 1.05266 30.9034 1.0465L23.4782 1.04744C22.0177 1.0443 20.5957 1.05368 19.1788 1.05843C17.4594 0.719463 16.8669 0.640012 14.5725 0.491505C13.7876 0.436724 12.9892 0.404033 12.271 0.397259C9.99336 0.424056 7.13557 0.31251 4.97575 0.327277C3.67248 0.319992 2.5666 0.357649 1.77132 0.43639C1.08095 0.49819 0.291514 0.547087 -0.584816 0.582349C-2.98538 0.292371 -3.19693 0.104035 -1.39116 0.0307479C-0.901915 0.0137083 -0.228021 0.0189805 0.125275 -0.017105C0.327992 -0.039083 0.604917 -0.0516506 0.933989 -0.0538233C1.26306 -0.0559948 1.63517 -0.0477147 2.02114 -0.0296244C3.23929 0.0178291 4.38105 0.02899 5.33185 0.00273533C6.22667 -0.0320127 7.32351 -0.0306265 8.51665 0.00676732C9.39339 0.0654181 10.164 -0.0173984 10.9222 -0.0413259C11.6805 -0.0652522 12.3027 -0.108234 13.4869 -0.0439408C13.7038 -0.03114 13.9191 -0.0234548 14.1163 -0.0214765C14.3135 -0.0194981 14.4874 -0.0232777 14.6247 -0.0325274C15.8966 -0.0739339 17.4144 -0.0695833 19.0549 -0.0198326C21.5709 0.0291255 23.9315 0.0309616 26.0549 -0.0143866C27.3259 -0.0540659 28.4097 -0.124433 29.2637 -0.222742C29.4965 -0.255622 29.8421 -0.275338 30.2676 -0.280001C32.404 -0.259489 34.7237 -0.18229 37.0772 -0.0533867C37.9639 -0.00173664 38.8493 0.0391175 39.7147 0.0683067C41.4934 0.13315 43.2137 0.169486 44.8246 0.176237C47.1655 0.177308 49.6028 0.202258 52.1147 0.250858C53.665 0.27792 55.1587 0.287907 56.5783 0.280714C58.0374 0.277322 59.5952 0.297965 61.2165 0.342161C62.8288 0.378175 64.2497 0.357424 65.3078 0.282419C65.6563 0.242001 65.9369 0.194006 66.1446 0.139328C63.7838 -0.0385899 61.3423 -0.129012 59.3116 -0.113727C58.5403 -0.125513 57.8998 -0.113615 57.087 -0.182916L57.0616 -0.159735C56.8998 -0.144694 56.6558 -0.141144 56.376 -0.149766C56.0962 -0.158388 55.8003 -0.178574 55.5444 -0.206483C55.6411 -0.294572 55.7327 -0.378025 55.7988 -0.438297C57.346 -0.427665 58.8484 -0.428525 60.2981 -0.440887C61.5201 -0.45867 63.1791 -0.302902 64.2368 -0.361537C66.3 -0.288216 67.6136 -0.389454 69.4637 -0.360241C71.3139 -0.331029 73.3516 -0.234524 75.2018 -0.205312C76.8162 -0.189282 78.3838 -0.185797 79.8958 -0.194874C80.4177 -0.207616 81.0193 -0.204628 81.6638 -0.186091C82.5698 -0.151213 83.4124 -0.145369 84.0951 -0.16923C84.7778 -0.193093 85.273 -0.2457 85.5239 -0.321016C85.2876 -0.391567 84.9693 -0.482534 84.6021 -0.576767C85.2776 -0.654198 86.3033 -0.686801 87.5273 -0.669727L89.2569 -0.673466C89.7152 -0.671422 90.0655 -0.692356 90.2355 -0.731933C90.4054 -0.771512 90.382 -0.826704 90.1699 -0.886103C86.8904 -1.18511 86.7697 -1.21807 84.3627 -1.02575L81.1669 -1.11512L81.2208 -1.11649ZM124.447 -0.295124L124.203 -0.311412L124.447 -0.295124ZM522.709 31.5176L522.653 31.5686L522.714 31.513L523.25 31.5488L523.285 31.5164L522.709 31.5176ZM444.917 9.16431C444.16 9.10867 443.395 9.05752 442.628 9.01117C442.427 9.00398 442.239 9.00235 442.08 9.00643C441.921 9.01051 441.795 9.02017 441.713 9.03459C441.652 9.09022 442.081 9.12882 442.47 9.15489C442.962 9.18998 443.464 9.21227 443.924 9.21948C444.385 9.22668 444.788 9.21855 445.092 9.19589L445.532 9.17559L444.917 9.16431ZM54.8522 22.7242C55.3508 22.7336 55.8236 22.7351 56.259 22.7287C58.1905 22.6838 60.0398 22.6184 62.02 22.5767C64.5186 22.4708 67.3897 22.4277 70.5256 22.4489C71.7507 22.4593 72.7858 22.425 73.5099 22.35C73.9434 22.3097 74.5029 22.2862 75.1542 22.2808L83.4445 22.1586C83.957 22.1332 84.4001 22.0976 84.7633 22.0527C84.0326 22.0038 83.5456 21.9712 83.2533 21.9517C82.647 21.9462 82.1258 21.9611 81.742 21.9949C81.3298 22.0522 80.6329 22.0749 79.79 22.0584C78.939 22.0448 78.1091 22.0375 77.3046 22.0365C75.7852 22.0393 74.2555 22.0515 72.7311 22.059C72.1379 22.2184 70.3873 22.1461 68.8883 22.1304L67.7303 22.1375C63.9448 22.2201 60.3289 22.3338 56.8999 22.478C56.2372 22.5024 55.6663 22.5413 55.2047 22.5935C55.0309 22.6343 54.9751 22.685 55.042 22.7419L54.7985 22.7256L54.8522 22.7242ZM223.894 37.9639C224.812 37.9748 225.768 37.997 226.748 38.0305C227.504 38.0646 228.24 38.0853 228.929 38.0918C232.79 38.1275 236.814 38.21 240.945 38.3382C241.486 38.3576 242.005 38.3671 242.483 38.3664L245.865 38.3339C246.931 38.3156 246.951 38.297 246.175 38.051C245.531 38.0033 244.88 37.9598 244.227 37.9207C243.837 37.8946 243.204 37.8523 243.056 37.8921C242.152 38.0009 240.504 37.9305 239.118 37.9074C235.105 37.848 230.966 37.7602 226.915 37.6883C226.058 37.6707 225.229 37.6618 224.434 37.6617C223.941 37.658 223.492 37.6649 223.105 37.6822C222.992 37.684 222.897 37.6891 222.827 37.6973C222.757 37.7055 222.713 37.7165 222.699 37.7297C222.684 37.7428 222.699 37.7578 222.743 37.7736C222.787 37.7894 222.858 37.8057 222.952 37.8213C223.284 37.8761 223.667 37.9285 224.088 37.9769L223.894 37.9639ZM253.29 2.26246L257.244 2.23329C257.717 2.23016 258.12 2.19734 258.627 2.21138C261.334 2.25587 263.84 2.24348 266.039 2.17472C266.788 2.14667 267.664 2.14106 268.619 2.1582C271.544 2.20901 274.302 2.2111 276.821 2.16442C278.449 2.15505 279.972 2.12358 281.368 2.07048C281.476 2.05815 281.543 2.04141 281.565 2.02141C281.587 2.00141 281.563 1.97861 281.495 1.95457C281.478 1.93938 281.43 1.92304 281.355 1.90668C281.28 1.89032 281.18 1.87431 281.062 1.85978C280.944 1.84525 280.81 1.83254 280.67 1.8225C280.53 1.81247 280.387 1.80537 280.251 1.80168C278.487 1.7298 276.813 1.70476 275.365 1.72859C274.022 1.7571 272.576 1.76544 271.05 1.75349C269.59 1.75034 268.599 1.84331 266.794 1.77237C266.031 1.74901 265.358 1.7567 264.888 1.79416C263.943 1.85623 262.624 1.85969 261.165 1.8039C260.293 1.77567 259.459 1.76356 258.695 1.76804C256.843 1.78845 255.073 1.82928 253.356 1.86874C252.815 1.87787 252.236 1.87913 251.627 1.87249L243.033 1.79523C240.967 1.77153 238.907 1.74319 236.88 1.73202C235.223 1.70777 233.68 1.71536 232.307 1.75454C230.843 1.79571 229.246 1.81243 227.547 1.80437C224.908 1.82691 222.284 1.83552 219.412 1.83249C217.58 1.83436 215.704 1.82833 213.79 1.80977C212.822 1.78588 212 1.80534 211.482 1.86439C211.167 1.913 210.426 1.8734 209.811 1.86211C206.531 1.75337 203.455 1.7276 200.797 1.78661C200.458 1.79622 200.085 1.7997 199.688 1.79699C197.128 1.79497 194.476 1.78179 192.019 1.78164C191.372 1.78622 190.763 1.7988 190.2 1.81922C190.26 1.85252 190.432 1.88863 190.68 1.92003C190.928 1.95144 191.233 1.97574 191.531 1.9879C193.855 2.08095 196.099 2.1301 198.168 2.1333C201.613 2.12145 205.222 2.1481 208.956 2.21297C211.854 2.27836 214.496 2.2646 216.686 2.17268C218.398 2.1041 220.625 2.12991 222.984 2.24566C223.994 2.30095 224.974 2.32306 225.79 2.30896C226.576 2.29047 227.478 2.29496 228.442 2.32215C230.476 2.37385 232.432 2.39783 234.272 2.39362C236.071 2.37459 237.748 2.3226 239.596 2.30683C241.443 2.29105 244.256 2.30009 246.534 2.2733C248.811 2.2465 251.064 2.24289 253.29 2.26246ZM89.4816 -0.449418C89.6903 -0.306066 90.429 -0.216837 91.2236 -0.178612C93.963 -0.00888111 96.6714 0.0633459 98.8938 0.0259461C100.094 -0.02622 101.695 -0.00614107 103.381 0.0822444C105.344 0.17412 107.179 0.189357 108.562 0.125268C108.901 0.114071 109.16 0.0903982 109.317 0.0563576C109.348 0.0285396 109.404 -0.0224582 109.414 -0.0317304C109.268 -0.0552477 109.09 -0.0770349 108.893 -0.0954181C108.695 -0.1138 108.484 -0.128281 108.275 -0.137747L99.2013 -0.301847L97.62 -0.337958C94.7318 -0.432562 91.9796 -0.470252 89.4816 -0.449418ZM107.33 1.81953C108.747 2.05362 108.751 2.04897 109.477 2.10249C112.977 2.32476 116.475 2.44474 119.554 2.44816C120.239 2.44749 120.82 2.42489 121.248 2.38228C121.468 2.3765 121.608 2.35815 121.638 2.33123C121.667 2.3043 121.584 2.27099 121.405 2.23855L120.279 2.07364C118.234 2.00224 116.218 1.94552 114.244 1.9038C111.945 1.85453 109.908 1.85263 107.525 1.83256L107.33 1.81953ZM223.724 36.9274C225.043 37.2495 225.049 37.2449 227.258 37.328C228.797 37.3869 230.291 37.4214 231.694 37.4307C233.408 37.4408 235.166 37.4589 236.875 37.4737C237.292 37.484 237.646 37.4754 237.867 37.4498C238.089 37.4241 238.162 37.3832 238.073 37.3349C237.849 37.2824 237.498 37.2317 237.077 37.1909C236.657 37.1502 236.192 37.1217 235.757 37.1103L234.825 37.1026C233.692 37.0866 232.516 37.0626 231.422 37.0591C230.712 37.0725 229.889 37.0621 229.019 37.0289C228.148 36.9957 227.253 36.9406 226.403 36.8677L223.724 36.9274ZM114.377 -0.0281767C114.729 0.0276173 115.128 0.0810558 115.562 0.130714C117.243 0.268358 119.021 0.346535 120.55 0.349918C121.272 0.358445 121.933 0.328001 122.669 0.372241C123.988 0.431357 125.267 0.462847 126.436 0.465006C126.436 0.465006 126.764 0.452097 126.871 0.449342L127.095 0.245345C126.542 0.198087 125.965 0.159479 125.39 0.1313C123.463 0.0770268 121.57 0.0399211 119.681 -0.00182205C117.792 -0.0435647 117.134 -0.0627393 115.898 -0.0806675C115.347 -0.0708122 114.838 -0.0532303 114.377 -0.0281767ZM72.6421 25.3326L75.1642 25.7502C75.9803 25.7864 76.7427 25.793 77.3354 25.7689C77.9282 25.7448 78.3187 25.6912 78.4477 25.6165C78.6554 25.5815 78.6762 25.5297 78.5057 25.4719C78.3352 25.4141 77.9866 25.3548 77.5331 25.3065C77.0966 25.2492 76.5984 25.1978 76.0692 25.1556C75.5399 25.1133 74.9911 25.0811 74.4566 25.0608L72.6421 25.3326ZM93.6406 23.2537C91.9911 23.1829 90.4134 23.154 89.028 23.1691C88.1552 23.2105 86.9726 23.1973 85.7225 23.1321C83.4493 23.0022 81.2579 22.9662 79.6108 23.0318C79.6108 23.0318 79.5497 23.0874 79.2705 23.1036C78.9914 23.1198 80.0986 23.159 80.3421 23.1753C82.1283 23.2151 83.9247 23.2457 85.4775 23.26C86.4416 23.2594 87.4613 23.2726 88.5191 23.2993C89.9746 23.3405 91.355 23.3538 92.6062 23.3388C92.6062 23.3388 93.0903 23.3264 93.6356 23.2583L93.6406 23.2537ZM269.805 1.50599C269.017 1.42736 268.163 1.36345 267.306 1.31906C266.45 1.27467 265.613 1.25096 264.858 1.2497C264.281 1.2456 263.813 1.26636 263.53 1.3087C263.247 1.35105 263.164 1.41256 263.295 1.48351C263.879 1.52261 264.658 1.57474 265.097 1.60407C266.616 1.6012 267.912 1.56349 269.805 1.50599ZM417.293 8.13256C416.661 8.06925 415.965 8.02085 415.284 7.99289C414.603 7.96492 413.964 7.95851 413.441 7.97439C413.172 7.98128 413.355 8.05321 413.309 8.09493C413.279 8.1044 413.279 8.11616 413.31 8.129C413.341 8.14184 413.4 8.15529 413.483 8.16792C413.565 8.18055 413.667 8.19191 413.778 8.20081C413.889 8.20971 414.006 8.21582 414.114 8.21849C414.8 8.24576 415.448 8.25387 415.999 8.24212C416.55 8.23036 416.988 8.19909 417.273 8.1511L417.293 8.13256ZM427.175 9.03747C427.078 9.00012 426.87 8.96119 426.589 8.92782C426.309 8.89444 425.975 8.86886 425.65 8.85577C425.074 8.85401 424.55 8.86437 424.1 8.88645C423.61 8.90349 423.962 9.01164 424.624 9.0758C424.904 9.10156 425.203 9.12164 425.498 9.13447C425.793 9.1473 426.075 9.15251 426.322 9.14969C426.568 9.14686 426.773 9.13609 426.919 9.11822C427.066 9.10035 427.15 9.07588 427.165 9.04674L427.175 9.03747ZM140.03 0.369131C138.556 0.235666 137.421 0.269242 136.173 0.215601C134.925 0.161959 134.617 0.156316 134.784 0.242152C134.952 0.327988 135.807 0.31058 136.343 0.346422C137.067 0.393982 137.795 0.421292 138.447 0.425303C139.098 0.429314 139.646 0.409865 140.03 0.369131ZM447.252 22.9514C446.471 22.9215 445.706 22.9003 444.969 22.8883C444.872 22.9007 444.811 22.9169 444.79 22.936C444.769 22.9551 444.788 22.9767 444.846 22.9995C444.846 22.9995 445.347 23.0678 445.639 23.0874C446.716 23.1544 446.769 23.0584 447.252 22.9514ZM557.624 35.3861C558.153 35.4762 558.399 35.5375 558.822 35.5807C559.017 35.5957 559.218 35.6067 559.41 35.6126C559.603 35.6186 559.782 35.6195 559.935 35.6153C560.121 35.5894 560.164 35.5497 560.057 35.5041C560.057 35.5041 559.518 35.4232 559.313 35.4195C558.728 35.4004 558.161 35.3892 557.624 35.3861ZM114.935 -0.393943C113.815 -0.468885 112.743 -0.540575 111.967 -0.453118C113.746 -0.358997 113.746 -0.358992 114.935 -0.393943ZM133.08 0.461549C131.949 0.301272 131.285 0.286728 130.742 0.305143C130.626 0.309782 130.55 0.320119 130.524 0.334587C130.498 0.349055 130.525 0.366868 130.599 0.385332C130.673 0.403795 130.791 0.421903 130.936 0.436918C131.08 0.451933 131.243 0.463038 131.399 0.46855C131.989 0.473164 132.552 0.470821 133.08 0.461549ZM191.302 0.529323C191.327 0.506142 191.357 0.478325 191.065 0.458775C190.989 0.44885 190.899 0.440315 190.805 0.434023C190.711 0.427732 190.616 0.423909 190.53 0.422938C190.53 0.422938 190.499 0.450756 190.479 0.469301L191.302 0.529323ZM231.732 39.0158L231.082 39.037L231.374 39.0565L232.145 39.0683L231.732 39.0158ZM460.825 8.67575C460.581 8.65946 460.338 8.64316 460.302 8.67562C460.251 8.68064 460.219 8.6879 460.209 8.69677C460.199 8.70564 460.212 8.71587 460.246 8.72662C460.246 8.72662 460.587 8.74943 460.733 8.7592L460.825 8.67575ZM422.896 8.93531C422.735 8.93345 422.591 8.93563 422.471 8.9417L422.44 8.96952L422.927 9.00211L422.896 8.93531ZM92.3543 15.5634C92.1661 15.5465 91.9667 15.5332 91.7698 15.5243L91.5261 15.508C91.5261 15.508 91.7878 15.5554 91.934 15.5651C92.0801 15.5749 92.1979 15.5629 92.3543 15.5634Z" fill="#DAA520"/>
</g>
</svg>
