<svg width="40" height="21" viewBox="0 0 40 21" fill="none" xmlns="http://www.w3.org/2000/svg">
<path d="M39.8606 1.14441L22.9377 20.5285C22.7961 20.6909 22.556 20.8241 22.2549 20.9072C21.9539 20.9903 21.6088 21.0187 21.2737 20.9879C20.9387 20.9571 20.6325 20.8689 20.4031 20.7371C20.1736 20.6052 20.0339 20.4372 20.0058 20.2592L18.575 11.2482L1.41108 10.4971C1.07209 10.4823 0.751987 10.409 0.500841 10.2885C0.249694 10.1681 0.0816641 10.0073 0.0230298 9.83142C-0.0356045 9.65551 0.0184635 9.47436 0.176778 9.31629C0.335092 9.15823 0.588725 9.03217 0.898009 8.95783L37.8206 0.0734331C38.1061 0.00475786 38.4247 -0.0164216 38.7337 0.0127388C39.0427 0.0418992 39.3274 0.120003 39.5494 0.236562C39.7714 0.353121 39.9202 0.502555 39.9757 0.664794C40.0313 0.827034 39.9909 0.994312 39.8601 1.14416L39.8606 1.14441Z" fill="#FCAF17"/>
</svg>
