<svg width="413" height="513" viewBox="0 0 413 513" fill="none" xmlns="http://www.w3.org/2000/svg">
<path d="M230.104 274.971C227.149 275.713 224.162 277.193 221.331 279.317C213.975 284.709 209.014 292.639 210.252 297.027C211.489 301.415 218.456 300.6 225.812 295.208C228.666 293.164 231.321 290.51 233.612 287.41C234.684 285.911 235.109 284.005 234.696 282.549L233.089 276.848C232.681 275.388 231.51 274.652 230.104 274.971Z" fill="#D5D6DB"/>
<path d="M223.767 194.973C221.624 195.512 219.458 196.585 217.405 198.126C212.072 202.034 208.474 207.784 209.37 210.963C210.267 214.142 215.32 213.55 220.653 209.642C222.722 208.159 224.647 206.234 226.308 203.986C227.085 202.899 227.393 201.518 227.094 200.463L225.929 196.335C225.634 195.276 224.786 194.742 223.767 194.973Z" fill="#D5D6DB"/>
<path d="M196.64 196.904C196.192 196.815 195.681 196.96 195.206 197.31L182.671 206.505C181.623 207.272 181.029 208.808 181.345 209.938C181.417 210.196 181.534 210.42 181.691 210.595L205.538 237.516L247.334 206.854L196.64 196.904Z" fill="#DAA520"/>
<path d="M314.126 201.17L201.842 281.082L138.001 310.05L106.579 316.794L104.312 309.118L291.09 178.612C296.659 174.705 302.572 172.412 308.23 171.965C310.705 171.786 313.095 171.995 315.345 172.585C317.342 173.086 319.179 173.968 320.801 175.205C322.609 176.606 326.383 176.917 327.241 179.592C327.245 179.588 328.442 191.754 314.126 201.17Z" fill="#E1E6E9"/>
<path d="M205.047 271.983L148.233 363.547C147.503 364.836 147.618 366.318 148.489 366.858C149.024 367.189 149.748 367.098 150.415 366.615L162.847 357.621C165.239 355.89 167.455 353.658 169.36 351.061L272.801 221.038L205.047 271.983Z" fill="#DAA520"/>
<path d="M95.7836 257.251C95.099 256.878 94.2011 257.019 93.3735 257.629L82.9816 265.281C81.5657 266.323 80.7644 268.406 81.1913 269.935C81.2727 270.226 81.3955 270.484 81.556 270.699L103.443 300.105L133.991 278.018L95.7836 257.251Z" fill="#DAA520"/>
<path d="M111.742 306.977L94.2449 332.369C93.9894 332.734 93.9707 333.205 94.203 333.42C94.3706 333.575 94.6315 333.559 94.8673 333.38L104.462 326.457C104.536 326.403 104.607 326.335 104.668 326.256L129.525 294.157L111.742 306.977Z" fill="black"/>
<path d="M313.062 174.219C310.732 173.595 308.253 173.378 305.685 173.573C302.565 178.125 300.251 183.289 298.973 188.549C298.784 189.609 299.307 190.399 300.142 190.314C300.402 190.288 300.672 190.177 300.927 189.993L318.71 177C317.033 175.685 315.131 174.749 313.062 174.219Z" fill="black"/>
<path d="M275.29 197.338L287.063 188.688L293.574 211.906L281.801 220.556L275.29 197.338Z" fill="#D5D6DB"/>
<path d="M267.802 205.255C266.385 206.299 265.581 208.38 266.006 209.904L266.695 212.372C267.168 213.859 268.687 214.177 270.09 213.081C271.424 212.038 272.183 210.077 271.824 208.593L271.135 206.125C270.71 204.602 269.218 204.213 267.802 205.255Z" fill="black"/>
<path d="M257.542 212.367C256.125 213.411 255.321 215.493 255.746 217.016L256.435 219.485C256.908 220.972 258.428 221.289 259.83 220.194C261.165 219.151 261.923 217.189 261.564 215.705L260.875 213.237C260.45 211.715 258.958 211.326 257.542 212.367Z" fill="black"/>
<path d="M247.28 219.482C245.864 220.528 245.062 222.607 245.487 224.129L246.176 226.597C246.648 228.084 248.168 228.402 249.57 227.307C250.905 226.263 251.663 224.302 251.304 222.818L250.615 220.35C250.19 218.826 248.697 218.438 247.28 219.482Z" fill="black"/>
<path d="M237.02 226.594C235.605 227.64 234.802 229.719 235.227 231.241L235.916 233.71C236.389 235.197 237.909 235.514 239.311 234.419C240.646 233.376 241.404 231.414 241.045 229.93L240.356 227.462C239.93 225.939 238.437 225.55 237.02 226.594Z" fill="black"/>
<path d="M226.762 233.708C225.345 234.754 224.542 236.835 224.967 238.358L225.657 240.828C226.082 242.351 227.575 242.739 228.991 241.695C230.408 240.651 231.212 238.571 230.787 237.048L230.097 234.578C229.674 233.054 228.182 232.664 226.765 233.706C226.764 233.707 226.763 233.707 226.762 233.708Z" fill="black"/>
<path d="M216.502 240.821C215.086 241.867 214.283 243.947 214.708 245.47L215.398 247.94C215.823 249.463 217.316 249.851 218.732 248.808C220.149 247.764 220.952 245.683 220.527 244.161L219.838 241.691C219.415 240.167 217.923 239.777 216.505 240.818C216.504 240.819 216.503 240.82 216.502 240.821Z" fill="black"/>
<path d="M206.243 247.933C204.826 248.979 204.023 251.06 204.448 252.583L205.138 255.053C205.565 256.574 207.059 256.959 208.474 255.914C209.887 254.87 210.689 252.794 210.267 251.274L209.577 248.804C209.153 247.28 207.66 246.89 206.243 247.933Z" fill="black"/>
<path d="M195.982 255.046C194.566 256.092 193.763 258.172 194.188 259.696L194.878 262.165C195.304 263.687 196.799 264.072 198.214 263.027C199.627 261.983 200.429 259.907 200.007 258.386L199.317 255.916C198.892 254.393 197.4 254.003 195.982 255.046Z" fill="black"/>
<path d="M185.723 262.158C184.307 263.204 183.504 265.285 183.929 266.808L184.619 269.278C185.046 270.799 186.54 271.184 187.955 270.139C189.368 269.095 190.17 267.019 189.748 265.499L189.058 263.029C188.633 261.506 187.14 261.116 185.723 262.158Z" fill="black"/>
<path d="M175.461 269.272C174.044 270.316 173.24 272.397 173.665 273.919L173.666 273.922L174.356 276.392C174.783 277.914 176.277 278.299 177.692 277.253C179.105 276.21 179.907 274.134 179.485 272.613L178.795 270.143C178.371 268.619 176.878 268.229 175.461 269.272Z" fill="black"/>
<path d="M165.204 276.382C163.787 277.426 162.984 279.507 163.409 281.029L163.41 281.032L164.1 283.502C164.527 285.023 166.021 285.407 167.436 284.362C168.849 283.318 169.651 281.242 169.229 279.721L168.539 277.252C168.114 275.729 166.621 275.339 165.204 276.382Z" fill="black"/>
</svg>
