<svg width="75" height="63" viewBox="0 0 75 63" fill="none" xmlns="http://www.w3.org/2000/svg">
<g filter="url(#filter0_d_108_74)">
<path fill-rule="evenodd" clip-rule="evenodd" d="M37.2841 50.0108C52.3526 50.0108 64.5681 40.6063 64.5681 29.0054C64.5681 17.4044 52.3526 8 37.2841 8C22.2155 8 10 17.4044 10 29.0054C10 40.6063 22.2155 50.0108 37.2841 50.0108Z" fill="white"/>
</g>
<path fill-rule="evenodd" clip-rule="evenodd" d="M40.7558 26.6938C40.3298 26.5901 39.84 26.5209 39.3927 26.5209C38.8389 26.5209 37.6462 26.8149 37.6462 27.3855V28.7515H40.4789V31.0513H37.6462V37.3974H34.7921V31.0513H33.3864V28.7515H34.7921V27.593C34.7921 25.8465 35.7718 24.394 38.136 24.394C38.9454 24.394 40.3937 24.4286 41.1818 24.6534L40.7558 26.6938Z" fill="#080809"/>
<defs>
<filter id="filter0_d_108_74" x="0" y="0" width="74.5681" height="62.0107" filterUnits="userSpaceOnUse" color-interpolation-filters="sRGB">
<feFlood flood-opacity="0" result="BackgroundImageFix"/>
<feColorMatrix in="SourceAlpha" type="matrix" values="0 0 0 0 0 0 0 0 0 0 0 0 0 0 0 0 0 0 127 0" result="hardAlpha"/>
<feOffset dy="2"/>
<feGaussianBlur stdDeviation="5"/>
<feColorMatrix type="matrix" values="0 0 0 0 0 0 0 0 0 0 0 0 0 0 0 0 0 0 0.1 0"/>
<feBlend mode="normal" in2="BackgroundImageFix" result="effect1_dropShadow_108_74"/>
<feBlend mode="normal" in="SourceGraphic" in2="effect1_dropShadow_108_74" result="shape"/>
</filter>
</defs>
</svg>
